{"asset":{"version":"2.0","generator":"babylon.js glTF exporter for 3dsmax 2020 v20200312.5"},"scene":0,"scenes":[{"nodes":[0,1,2,3]}],"nodes":[{"mesh":0,"rotation":[0.7071068,0.0,0.0,0.7071067],"scale":[0.01,0.01,0.01],"name":"Traffic_cone_1_LOD1"},{"mesh":1,"rotation":[0.7071068,0.0,0.0,0.7071067],"scale":[0.01,0.01,0.01],"name":"Traffic_cone_1_LOD2"},{"mesh":2,"rotation":[0.7071068,0.0,0.0,0.7071067],"scale":[0.01,0.01,0.01],"name":"Traffic_cone_1_LOD0"},{"name":"Default light"}],"meshes":[{"primitives":[{"attributes":{"POSITION":1,"NORMAL":2,"TEXCOORD_0":3,"TEXCOORD_1":4},"indices":0,"material":0}],"name":"Traffic_cone_1_LOD1"},{"primitives":[{"attributes":{"POSITION":6,"NORMAL":7,"TEXCOORD_0":8,"TEXCOORD_1":9},"indices":5,"material":0}],"name":"Traffic_cone_1_LOD2"},{"primitives":[{"attributes":{"POSITION":11,"NORMAL":12,"TEXCOORD_0":13,"TEXCOORD_1":14},"indices":10,"material":0}],"name":"Traffic_cone_1_LOD0"}],"accessors":[{"bufferView":0,"componentType":5123,"count":912,"type":"SCALAR","name":"accessorIndices"},{"bufferView":1,"componentType":5126,"count":912,"max":[14.999999,14.999999,2.44381E-06],"min":[-14.999999,-14.999999,-54.7401772],"type":"VEC3","name":"accessorPositions"},{"bufferView":1,"byteOffset":10944,"componentType":5126,"count":912,"type":"VEC3","name":"accessorNormals"},{"bufferView":2,"componentType":5126,"count":912,"type":"VEC2","name":"accessorUVs"},{"bufferView":2,"byteOffset":7296,"componentType":5126,"count":912,"type":"VEC2","name":"accessorUV2s"},{"bufferView":0,"byteOffset":1824,"componentType":5123,"count":288,"type":"SCALAR","name":"accessorIndices"},{"bufferView":1,"byteOffset":21888,"componentType":5126,"count":288,"max":[14.999999,14.999999,2.09384461E-06],"min":[-14.999999,-14.999999,-54.7401772],"type":"VEC3","name":"accessorPositions"},{"bufferView":1,"byteOffset":25344,"componentType":5126,"count":288,"type":"VEC3","name":"accessorNormals"},{"bufferView":2,"byteOffset":14592,"componentType":5126,"count":288,"type":"VEC2","name":"accessorUVs"},{"bufferView":2,"byteOffset":16896,"componentType":5126,"count":288,"type":"VEC2","name":"accessorUV2s"},{"bufferView":0,"byteOffset":2400,"componentType":5123,"count":1776,"type":"SCALAR","name":"accessorIndices"},{"bufferView":1,"byteOffset":28800,"componentType":5126,"count":1776,"max":[14.999999,14.999999,2.44381E-06],"min":[-14.999999,-14.999999,-54.7401772],"type":"VEC3","name":"accessorPositions"},{"bufferView":1,"byteOffset":50112,"componentType":5126,"count":1776,"type":"VEC3","name":"accessorNormals"},{"bufferView":2,"byteOffset":19200,"componentType":5126,"count":1776,"type":"VEC2","name":"accessorUVs"},{"bufferView":2,"byteOffset":33408,"componentType":5126,"count":1776,"type":"VEC2","name":"accessorUV2s"}],"bufferViews":[{"buffer":0,"byteLength":5952,"name":"bufferViewScalar"},{"buffer":0,"byteOffset":5952,"byteLength":71424,"byteStride":12,"name":"bufferViewFloatVec3"},{"buffer":0,"byteOffset":77376,"byteLength":47616,"byteStride":8,"name":"bufferViewFloatVec2"}],"buffers":[{"uri":"traffic_cone.bin","byteLength":124992}],"materials":[{"pbrMetallicRoughness":{"baseColorTexture":{"index":2},"metallicRoughnessTexture":{"index":1}},"normalTexture":{"index":0},"occlusionTexture":{"index":1},"name":"traffic_cone"}],"textures":[{"sampler":0,"source":0,"name":"Traffic_cone_1_normal.png"},{"sampler":0,"source":1,"name":"Traffic_cone_1_orm.png"},{"sampler":0,"source":2,"name":"Traffic_cone_1_color.png"}],"images":[{"uri":"./Traffic_cone_1_normal.png"},{"uri":"./Traffic_cone_1_orm.png"},{"uri":"./Traffic_cone_1_color.png"}],"samplers":[{"magFilter":9729,"minFilter":9987}]}